<?xml version="1.0" encoding="UTF-8"?>
<svg width="8px" height="5px" viewBox="0 0 8 5" version="1.1" xmlns="http://www.w3.org/2000/svg" xmlns:xlink="http://www.w3.org/1999/xlink">
    <title>Path</title>
    <g id="03-Admin" stroke="none" stroke-width="1" fill="none" fill-rule="evenodd">
        <g id="02-Reviews-for-approval" transform="translate(-1423.000000, -483.000000)" fill="#e03c31" fill-rule="nonzero">
            <g id="Group-9" transform="translate(1343.000000, 470.000000)">
                <path d="M84.774355,15.494985 L81.730509,18.2524438 C81.5946943,18.3883186 81.5187979,18.5521676 81.5028197,18.7439908 C81.4868415,18.9358141 81.5387706,19.1076557 81.6586071,19.2595157 C81.7864326,19.4033832 81.94222,19.4833095 82.1259693,19.4992948 C82.3177076,19.5072874 82.4854786,19.4473426 82.6292824,19.3194605 L86.2603271,16.0224989 C86.420109,15.8866241 86.5,15.7107861 86.5,15.494985 C86.5,15.2791839 86.420109,15.1033459 86.2603271,14.9674712 L82.6292824,11.6705095 C82.4854786,11.5426274 82.3177076,11.4866789 82.1259693,11.5026642 C81.94222,11.5106568 81.7864326,11.5905832 81.6586071,11.7424432 C81.5387706,11.8863107 81.4868415,12.054156 81.5028197,12.2459792 C81.5187979,12.4378024 81.5946943,12.6016514 81.730509,12.7375262 L84.774355,15.494985 Z" id="Path" transform="translate(84.000000, 15.500000) rotate(-270.000000) translate(-84.000000, -15.500000) "></path>
            </g>
        </g>
    </g>
</svg>