<?xml version="1.0" encoding="UTF-8"?>
<svg width="5px" height="8px" viewBox="0 0 5 8" version="1.1" xmlns="http://www.w3.org/2000/svg" xmlns:xlink="http://www.w3.org/1999/xlink">
    <title>Arrow_Forward</title>
    <g id="03-Admin" stroke="none" stroke-width="1" fill="none" fill-rule="evenodd">
        <g id="02-Reviews-for-approval" transform="translate(-648.000000, -760.000000)" fill="#E03C31" fill-rule="nonzero">
            <g id="Group-7" transform="translate(481.000000, 532.000000)">
                <g id="Group-2" transform="translate(20.000000, 222.000000)">
                    <path d="M150.274355,9.99498501 L147.230509,12.7524438 C147.094694,12.8883186 147.018798,13.0521676 147.00282,13.2439908 C146.986841,13.4358141 147.038771,13.6076557 147.158607,13.7595157 C147.286433,13.9033832 147.44222,13.9833095 147.625969,13.9992948 C147.817708,14.0072874 147.985479,13.9473426 148.129282,13.8194605 L151.760327,10.5224989 C151.920109,10.3866241 152,10.2107861 152,9.99498501 C152,9.77918389 151.920109,9.60334594 151.760327,9.46747115 L148.129282,6.17050953 C147.985479,6.04262738 147.817708,5.98667894 147.625969,6.00266421 C147.44222,6.01065685 147.286433,6.09058319 147.158607,6.24244324 C147.038771,6.38631065 146.986841,6.55415597 147.00282,6.7459792 C147.018798,6.93780242 147.094694,7.10165142 147.230509,7.2375262 L150.274355,9.99498501 Z" id="Arrow_Forward"></path>
                </g>
            </g>
        </g>
    </g>
</svg>