<?xml version="1.0" encoding="UTF-8"?>
<svg width="4px" height="16px" viewBox="0 0 4 16" version="1.1" xmlns="http://www.w3.org/2000/svg" xmlns:xlink="http://www.w3.org/1999/xlink">
    <title>More</title>
    <g id="03-Admin" stroke="none" stroke-width="1" fill="none" fill-rule="evenodd">
        <g id="02-Reviews-for-approval" transform="translate(-1401.000000, -1140.000000)" fill="#E03C31">
            <g id="Group-11" transform="translate(481.000000, 1110.000000)">
                <g id="Group-14" transform="translate(904.000000, 20.000000)">
                    <path d="M18,22 C19.1045695,22 20,22.8954305 20,24 C20,25.1045695 19.1045695,26 18,26 C16.8954305,26 16,25.1045695 16,24 C16,22.8954305 16.8954305,22 18,22 Z M18,16 C19.1045695,16 20,16.8954305 20,18 C20,19.1045695 19.1045695,20 18,20 C16.8954305,20 16,19.1045695 16,18 C16,16.8954305 16.8954305,16 18,16 Z M18,10 C19.1045695,10 20,10.8954305 20,12 C20,13.1045695 19.1045695,14 18,14 C16.8954305,14 16,13.1045695 16,12 C16,10.8954305 16.8954305,10 18,10 Z" id="More"></path>
                </g>
            </g>
        </g>
    </g>
</svg>