<?xml version="1.0" encoding="UTF-8"?>
<svg width="16px" height="18px" viewBox="0 0 16 18" version="1.1" xmlns="http://www.w3.org/2000/svg" xmlns:xlink="http://www.w3.org/1999/xlink">
    <title>Notifications</title>
    <g id="03-Admin" stroke="none" stroke-width="1" fill="none" fill-rule="evenodd">
        <g id="02-Reviews-for-approval" transform="translate(-1765.000000, -27.000000)" fill-rule="nonzero">
            <g id="Notifications" transform="translate(1766.000000, 28.000000)">
                <path d="M6.89988336,17 C7.95693874,16.9937857 8.89716677,16.3323277 9.2526244,15.3448276 L4.54714232,15.3448276 C4.90259995,16.3323277 5.84282798,16.9937857 6.89988336,17 L6.89988336,17 Z" id="Path" fill="#505050"></path>
                <path d="M12.7622688,10.0413793 C12.632439,9.8568778 12.5625726,9.63741578 12.5620356,9.41241379 L12.5620356,5.51724138 C12.5620356,2.4701531 10.0718274,0 7,0 C3.92817259,0 1.43796445,2.4701531 1.43796445,5.51724138 L1.43796445,9.41241379 C1.43742742,9.63741578 1.36756095,9.8568778 1.23773117,10.0413793 L0.286623086,11.3986207 C-0.00758038156,11.7219709 -0.0824964241,12.186739 0.0953959522,12.5849656 C0.273288328,12.9831923 0.670697739,13.240352 1.10980435,13.2413793 L12.8901957,13.2413793 C13.3293023,13.240352 13.7267117,12.9831923 13.904604,12.5849656 C14.0824964,12.186739 14.0075804,11.7219709 13.7133769,11.3986207 L12.7622688,10.0413793 Z" id="Path" stroke="#505050" stroke-width="1.5" fill-opacity="0" fill="#000000"></path>
            </g>
        </g>
    </g>
</svg>