<svg id="Layer_1" data-name="Layer 1" xmlns="http://www.w3.org/2000/svg" viewBox="0 0 157.56 40"><defs><style>.cls-1{fill:#e63c2f;}.cls-2{fill:#99999a;}.cls-3{fill:#646569;}</style></defs><title>PG Group Logo</title><path class="cls-1" d="M30.21,30A4.13,4.13,0,0,1,27,28.81l-5.73-5.75a1.81,1.81,0,0,0-2.57,0L13,28.81A4.13,4.13,0,0,1,9.76,30,4.28,4.28,0,0,1,7,28.75L1.22,23a4.16,4.16,0,0,1,0-5.87L17.14,1.18a4,4,0,0,1,5.69,0l4.35,4.34a2.29,2.29,0,0,1,4.37,1v3.4l7.19,7.19a4.16,4.16,0,0,1,0,5.87l-1.38,1.38L35.6,22.56,37,21.18a1.65,1.65,0,0,0,0-2.33L21.27,3.13a1.81,1.81,0,0,0-2.57,0L3,18.85a1.65,1.65,0,0,0,0,2.33L8.85,27a1.65,1.65,0,0,0,2.33,0l6-5.94a4,4,0,0,1,5.7,0l6,5.94a1.64,1.64,0,0,0,1.27.48,1.73,1.73,0,0,0,1.1-.52l1.34-1.34,1.77,1.77L33,28.75A4.28,4.28,0,0,1,30.21,30Z"/><path class="cls-1" d="M30.21,40A4.13,4.13,0,0,1,27,38.78L21.28,33a1.81,1.81,0,0,0-2.57,0L13,38.78A4.13,4.13,0,0,1,9.76,40,4.28,4.28,0,0,1,7,38.72l-5.8-5.8a4.15,4.15,0,0,1,0-5.87L2.6,25.66l1.77,1.77L3,28.82a1.65,1.65,0,0,0,0,2.33L8.81,37a1.73,1.73,0,0,0,1.1.52A1.64,1.64,0,0,0,11.18,37l6-5.94a4,4,0,0,1,5.7,0l6,5.94a1.64,1.64,0,0,0,1.27.48,1.73,1.73,0,0,0,1.1-.52L37,31.15a1.65,1.65,0,0,0,0-2.33L21.29,13.09a1.81,1.81,0,0,0-2.57,0L7.47,24.34,5.7,22.57,17.16,11.13a4,4,0,0,1,5.7,0L38.75,27a4.16,4.16,0,0,1,0,5.87L33,38.72A4.28,4.28,0,0,1,30.21,40Z"/><path class="cls-2" d="M45.21,24.72a.5.5,0,0,1-.27-.47V10.72a.84.84,0,0,1,.18-.6.77.77,0,0,1,.58-.19h4.42a6.34,6.34,0,0,1,3.45.94q1.49.94,1.49,3.55a4.13,4.13,0,0,1-2.8,4.22,6.28,6.28,0,0,1-1.92.35H47.73v5.25q0,.62-1.13.62h-.53A1.85,1.85,0,0,1,45.21,24.72Zm4.9-8.13a2.38,2.38,0,0,0,1.47-.48,2,2,0,0,0,.64-1.69,1.87,1.87,0,0,0-.66-1.64A2.61,2.61,0,0,0,50,12.32H47.73v4.28Z"/><path class="cls-2" d="M55.94,24.25v-7a12.14,12.14,0,0,0-.13-2.08,6.45,6.45,0,0,1-.13-.81q0-.3.7-.46a5.73,5.73,0,0,1,1.25-.16.51.51,0,0,1,.49.3,2.78,2.78,0,0,1,.22.63q.07.33.1.46a2.79,2.79,0,0,1,2.36-1.6,1.25,1.25,0,0,1,.95.31,1,1,0,0,1,.29.71,3.6,3.6,0,0,1-.17,1q-.17.57-.43.57a1.77,1.77,0,0,1-.41-.1,2.1,2.1,0,0,0-.63-.1,1.69,1.69,0,0,0-1.11.4,2.86,2.86,0,0,0-.68.74v7.15q0,.62-1.15.62h-.4Q55.94,24.87,55.94,24.25Z"/><path class="cls-2" d="M63,23.51a6.2,6.2,0,0,1-1.3-4.23A6.23,6.23,0,0,1,63,15a4.79,4.79,0,0,1,3.79-1.47A4.73,4.73,0,0,1,70.54,15a6.27,6.27,0,0,1,1.29,4.25,6.22,6.22,0,0,1-1.29,4.24,5.59,5.59,0,0,1-7.54,0Zm5.52-1.56a5.09,5.09,0,0,0,.56-2.69,5,5,0,0,0-.56-2.67,1.93,1.93,0,0,0-1.75-.88,2,2,0,0,0-1.77.88,5,5,0,0,0-.57,2.67A5,5,0,0,0,65,21.94a2,2,0,0,0,1.77.88A1.93,1.93,0,0,0,68.52,21.94Z"/><path class="cls-2" d="M73.2,29.08a.5.5,0,0,1-.27-.47V17.27a12.14,12.14,0,0,0-.13-2.08,6.47,6.47,0,0,1-.13-.81q0-.3.7-.46a5.66,5.66,0,0,1,1.23-.16.52.52,0,0,1,.51.3,2.78,2.78,0,0,1,.22.63q.07.33.1.46A3.89,3.89,0,0,1,76.75,14a3.5,3.5,0,0,1,1.71-.43,3.43,3.43,0,0,1,2.13.69,4.4,4.4,0,0,1,1.41,2,8.45,8.45,0,0,1,.5,3,6.65,6.65,0,0,1-1.18,4.18A3.88,3.88,0,0,1,78.08,25a4.05,4.05,0,0,1-2.49-.81v4.45q0,.62-1.13.62h-.4A1.86,1.86,0,0,1,73.2,29.08Zm6.56-9.76a5.5,5.5,0,0,0-.51-2.65,1.64,1.64,0,0,0-1.51-.9,2.05,2.05,0,0,0-1.16.36,3.92,3.92,0,0,0-1,1v5.1a3.22,3.22,0,0,0,1.89.6Q79.76,22.8,79.76,19.32Z"/><path class="cls-2" d="M84.78,23.52a6,6,0,0,1-1.34-4.18A6.21,6.21,0,0,1,84.77,15a4.88,4.88,0,0,1,3.75-1.43A4,4,0,0,1,91.94,15a6.55,6.55,0,0,1,1.12,4,1.24,1.24,0,0,1-.38.67q-.38.44-.57.44H86.23a3,3,0,0,0,.78,2,2.74,2.74,0,0,0,1.95.63,5.2,5.2,0,0,0,2.34-.6,1.63,1.63,0,0,1,.43-.15q.28,0,.63.56a1.88,1.88,0,0,1,.35.86q0,.4-.62.74a5.52,5.52,0,0,1-1.52.53,8.19,8.19,0,0,1-1.69.19A5.29,5.29,0,0,1,84.78,23.52Zm5.62-5.24a3.25,3.25,0,0,0-.48-1.89,1.62,1.62,0,0,0-1.41-.68q-2,0-2.28,2.57Z"/><path class="cls-2" d="M94.16,24.25v-7A12.14,12.14,0,0,0,94,15.19a6.45,6.45,0,0,1-.13-.81q0-.3.7-.46a5.73,5.73,0,0,1,1.25-.16.51.51,0,0,1,.49.3,2.78,2.78,0,0,1,.22.63q.07.33.1.46A2.79,2.79,0,0,1,99,13.55a1.25,1.25,0,0,1,.95.31,1,1,0,0,1,.29.71,3.6,3.6,0,0,1-.17,1q-.17.57-.43.57a1.77,1.77,0,0,1-.41-.1,2.1,2.1,0,0,0-.63-.1,1.69,1.69,0,0,0-1.11.4,2.86,2.86,0,0,0-.68.74v7.15q0,.62-1.15.62h-.4Q94.16,24.87,94.16,24.25Z"/><path class="cls-2" d="M102.76,24.19a3.29,3.29,0,0,1-.82-2.47V15.85h-.57a.48.48,0,0,1-.44-.21,1.33,1.33,0,0,1-.14-.7v-.32a1.34,1.34,0,0,1,.14-.7.48.48,0,0,1,.44-.21h.57l.28-2.08q.11-.62,1-.62h.51q.91,0,.91.62V13.7h1.3a.48.48,0,0,1,.44.21,1.34,1.34,0,0,1,.14.7v.32a1.34,1.34,0,0,1-.14.7.48.48,0,0,1-.44.21h-1.3v5.83a1.37,1.37,0,0,0,.22.89.84.84,0,0,0,.67.26,1.85,1.85,0,0,0,.4,0,1.49,1.49,0,0,1,.3,0q.26,0,.43.54a3,3,0,0,1,.17.8q0,.89-1.87.89A3,3,0,0,1,102.76,24.19Z"/><path class="cls-2" d="M117,14.08a1.49,1.49,0,0,1-.06.36l-5.08,14.34q-.17.45-1.13.45h-.34a2.17,2.17,0,0,1-.81-.12q-.28-.12-.28-.31a1,1,0,0,1,.11-.36l1.49-3.87-3.59-10.12a1.49,1.49,0,0,1,0-.16.92.92,0,0,1,0-.2q0-.43,1.17-.43h.49q.94,0,1.08.4l1.57,4.57q.23.74.62,2.42h.06l.19-.77q.26-1.06.45-1.66l1.55-4.57q.15-.4,1.08-.4h.36Q117,13.66,117,14.08Z"/><path class="cls-3" d="M129.23,16.94a.77.77,0,0,1,.19.58v5.83q0,.91-1.51,1.27a15,15,0,0,1-3.38.35,6.66,6.66,0,0,1-5.15-1.85q-1.7-1.85-1.7-5.72,0-7.61,7-7.61a11,11,0,0,1,2,.19,6.64,6.64,0,0,1,1.7.52q.67.33.67.71a1.65,1.65,0,0,1-.2.67,3.38,3.38,0,0,1-.48.73.74.74,0,0,1-.49.32,2.77,2.77,0,0,1-.52-.21,6.43,6.43,0,0,0-1.15-.38,6.67,6.67,0,0,0-1.58-.17,3.69,3.69,0,0,0-3.14,1.3,6.33,6.33,0,0,0-1,3.87q0,5.25,4,5.25a10.41,10.41,0,0,0,2-.19V19.15h-2.08a.48.48,0,0,1-.44-.21,1.33,1.33,0,0,1-.14-.7v-.55a1.34,1.34,0,0,1,.14-.7.48.48,0,0,1,.44-.21h4.11A.84.84,0,0,1,129.23,16.94Z"/><path class="cls-3" d="M130.93,21.53V14.27a.5.5,0,0,1,.27-.47,1.86,1.86,0,0,1,.86-.15h.4q1.13,0,1.13.62v6.89a1.4,1.4,0,0,0,1.6,1.57,2,2,0,0,0,1.16-.38,3.17,3.17,0,0,0,.88-.94V14.27q0-.62,1.13-.62h.43q1.13,0,1.13.62v7a12.51,12.51,0,0,0,.13,2.12,6.75,6.75,0,0,1,.13.82q0,.3-.7.46a5.73,5.73,0,0,1-1.25.16.51.51,0,0,1-.49-.31,2.84,2.84,0,0,1-.22-.67q-.08-.36-.1-.49A4.51,4.51,0,0,1,136,24.53a3.85,3.85,0,0,1-1.8.45Q130.93,25,130.93,21.53Z"/><path class="cls-3" d="M141.55,24.25v-7a12.14,12.14,0,0,0-.13-2.08,6.45,6.45,0,0,1-.13-.81q0-.3.7-.46a5.73,5.73,0,0,1,1.25-.16.51.51,0,0,1,.49.3,2.78,2.78,0,0,1,.22.63q.07.33.1.46a2.79,2.79,0,0,1,2.36-1.6,1.25,1.25,0,0,1,.95.31,1,1,0,0,1,.29.71,3.6,3.6,0,0,1-.17,1q-.17.57-.43.57a1.77,1.77,0,0,1-.41-.1A2.1,2.1,0,0,0,146,16a1.69,1.69,0,0,0-1.11.4,2.86,2.86,0,0,0-.68.74v7.15q0,.62-1.15.62h-.4Q141.55,24.87,141.55,24.25Z"/><path class="cls-3" d="M148.33,21.53V14.27a.5.5,0,0,1,.27-.47,1.86,1.86,0,0,1,.86-.15h.4q1.13,0,1.13.62v6.89a1.4,1.4,0,0,0,1.6,1.57,2,2,0,0,0,1.16-.38,3.17,3.17,0,0,0,.88-.94V14.27q0-.62,1.13-.62h.43q1.13,0,1.13.62v7a12.51,12.51,0,0,0,.13,2.12,6.75,6.75,0,0,1,.13.82q0,.3-.7.46a5.73,5.73,0,0,1-1.25.16.51.51,0,0,1-.49-.31,2.84,2.84,0,0,1-.22-.67q-.08-.36-.1-.49a4.51,4.51,0,0,1-1.44,1.15,3.85,3.85,0,0,1-1.8.45Q148.33,25,148.33,21.53Z"/><path class="cls-2" d="M51.05,33.1a.38.38,0,0,1,.08.27v3.16q0,.47-.75.66a7.7,7.7,0,0,1-1.92.2,3.52,3.52,0,0,1-2.75-1,4.54,4.54,0,0,1-.94-3.14q0-4.32,3.87-4.32a5.22,5.22,0,0,1,1.09.11,3.23,3.23,0,0,1,.86.29q.33.18.33.33a.94.94,0,0,1-.15.43q-.15.26-.26.26a1.52,1.52,0,0,1-.3-.15,3.23,3.23,0,0,0-.66-.26,3.18,3.18,0,0,0-.89-.11,2.56,2.56,0,0,0-2.16.84,4,4,0,0,0-.64,2.47,4.46,4.46,0,0,0,.6,2.47,2.29,2.29,0,0,0,2.08.91q.44,0,.87,0a4,4,0,0,0,.67-.11V33.93h-1.4a.21.21,0,0,1-.18-.08.48.48,0,0,1-.06-.27v-.19a.48.48,0,0,1,.06-.27.21.21,0,0,1,.18-.08h2.09A.38.38,0,0,1,51.05,33.1Z"/><path class="cls-2" d="M52.24,37.09V32.9a6.17,6.17,0,0,0-.07-1.13q-.07-.34-.07-.38t.23-.21a1.51,1.51,0,0,1,.42-.07.26.26,0,0,1,.24.17,1.88,1.88,0,0,1,.12.36l.05.25a1.75,1.75,0,0,1,1.38-.9.86.86,0,0,1,.51.13.4.4,0,0,1,.18.33,1.37,1.37,0,0,1-.07.42q-.07.22-.17.22a.84.84,0,0,1-.23-.07,1.2,1.2,0,0,0-.42-.07.93.93,0,0,0-.52.16,2,2,0,0,0-.41.35,1,1,0,0,0-.17.21v4.37q0,.26-.48.26h0Q52.24,37.35,52.24,37.09Z"/><path class="cls-2" d="M56.13,36.59a3.47,3.47,0,0,1-.71-2.35,3.57,3.57,0,0,1,.72-2.39A2.56,2.56,0,0,1,58.19,31a2.48,2.48,0,0,1,2,.83,3.62,3.62,0,0,1,.7,2.39,3.55,3.55,0,0,1-.69,2.36,2.51,2.51,0,0,1-2,.81A2.59,2.59,0,0,1,56.13,36.59ZM59.44,36a3,3,0,0,0,.42-1.76,3,3,0,0,0-.42-1.77,1.49,1.49,0,0,0-1.29-.57,1.46,1.46,0,0,0-1.28.57,3.08,3.08,0,0,0-.41,1.77A3.05,3.05,0,0,0,56.88,36a1.46,1.46,0,0,0,1.28.57A1.5,1.5,0,0,0,59.44,36Z"/><path class="cls-2" d="M62.31,36.91a1.87,1.87,0,0,1-.54-1.42V31.35q0-.26.49-.26h.17q.46,0,.46.26v4a1.15,1.15,0,0,0,.31.85,1.18,1.18,0,0,0,.87.3,1.52,1.52,0,0,0,.78-.23,2.3,2.3,0,0,0,.67-.61V31.35q0-.26.46-.26h.17q.49,0,.49.26v4.24a6,6,0,0,0,.07,1.13q.07.34.07.38t-.23.21a1.61,1.61,0,0,1-.43.07.27.27,0,0,1-.25-.19,2,2,0,0,1-.12-.39l-.06-.26a3,3,0,0,1-.9.66,2.37,2.37,0,0,1-1,.24A2,2,0,0,1,62.31,36.91Z"/><path class="cls-2" d="M67.5,39.55V32.9a6.17,6.17,0,0,0-.07-1.13q-.07-.34-.07-.38t.23-.21a1.52,1.52,0,0,1,.42-.07.26.26,0,0,1,.24.17,1.88,1.88,0,0,1,.12.36l.05.25a2.59,2.59,0,0,1,1.9-.9,2,2,0,0,1,1.25.41,2.58,2.58,0,0,1,.79,1.13,4.63,4.63,0,0,1,.27,1.65,4.42,4.42,0,0,1-.3,1.73A2.4,2.4,0,0,1,71.48,37a2.21,2.21,0,0,1-1.27.37,2.55,2.55,0,0,1-.93-.16,3.08,3.08,0,0,1-.78-.45v2.76q0,.26-.48.26h0Q67.5,39.81,67.5,39.55Zm3.68-3.61a2.83,2.83,0,0,0,.41-1.65,3.45,3.45,0,0,0-.38-1.78,1.21,1.21,0,0,0-1.09-.63,1.83,1.83,0,0,0-.83.21,2.72,2.72,0,0,0-.78.61V36a2.25,2.25,0,0,0,1.48.54A1.37,1.37,0,0,0,71.18,35.94Z"/></svg>