<?xml version="1.0" encoding="UTF-8"?>
<svg width="20px" height="20px" viewBox="0 0 20 20" version="1.1" xmlns="http://www.w3.org/2000/svg" xmlns:xlink="http://www.w3.org/1999/xlink">
    <title>Radio_Selected</title>
    <g id="01-Write-a-review-(On-the-website)" stroke="none" stroke-width="1" fill="none" fill-rule="evenodd">
        <g id="03-Writing-the-review" transform="translate(-615.000000, -922.000000)" fill="#E03C31" fill-rule="nonzero">
            <g id="Group-2" transform="translate(583.000000, 100.000000)">
                <g id="Group-4" transform="translate(30.000000, 783.000000)">
                    <g id="Radio_Selected" transform="translate(2.000000, 39.000000)">
                        <path d="M10,0 C4.48,0 0,4.48 0,10 C0,15.52 4.48,20 10,20 C15.52,20 20,15.52 20,10 C20,4.48 15.52,0 10,0 Z M10,18 C5.58,18 2,14.42 2,10 C2,5.58 5.58,2 10,2 C14.42,2 18,5.58 18,10 C18,14.42 14.42,18 10,18 Z" id="Shape"></path>
                        <circle id="Oval" cx="10" cy="10" r="5"></circle>
                    </g>
                </g>
            </g>
        </g>
    </g>
</svg>