<?xml version="1.0" encoding="UTF-8"?>
<svg width="18px" height="17px" viewBox="0 0 18 17" version="1.1" xmlns="http://www.w3.org/2000/svg" xmlns:xlink="http://www.w3.org/1999/xlink">
    <title>Star Copy 4</title>
    <g id="03-Admin" stroke="none" stroke-width="1" fill="none" fill-rule="evenodd" fill-opacity="0">
        <g id="02-Reviews-for-approval" transform="translate(-622.000000, -592.000000)" fill="#CCCCCC" stroke="#2C2C2C">
            <g id="Group-7" transform="translate(481.000000, 532.000000)">
                <path d="M150,73.4 L146.231177,75.7661021 C145.763431,76.0597567 145.146195,75.9186286 144.85254,75.4508836 C144.707524,75.219896 144.663146,74.9396993 144.729685,74.6752047 L145.815351,70.3596748 L145.815351,70.3596748 L142.400424,67.5064764 C141.976601,67.1523687 141.920085,66.521731 142.274193,66.0979077 C142.449062,65.8886101 142.701832,65.7598179 142.973943,65.7413673 L147.413745,65.4403252 L147.413745,65.4403252 L149.072027,61.3108495 C149.277835,60.7983443 149.860143,60.549717 150.372648,60.7555248 C150.62574,60.8571593 150.826338,61.057758 150.927973,61.3108495 L152.586255,65.4403252 L152.586255,65.4403252 L157.026057,65.7413673 C157.577077,65.7787293 157.993478,66.2557068 157.956116,66.8067264 C157.937666,67.0788375 157.808874,67.3316066 157.599576,67.5064764 L154.184649,70.3596748 L154.184649,70.3596748 L155.270315,74.6752047 C155.405056,75.2108009 155.080099,75.7542166 154.544502,75.8889576 C154.280008,75.955497 153.999811,75.9111182 153.768823,75.7661021 L150,73.4 L150,73.4 Z" id="Star-Copy-4"></path>
            </g>
        </g>
    </g>
</svg>