<?xml version="1.0" encoding="UTF-8"?>
<svg width="10px" height="10px" viewBox="0 0 10 10" version="1.1" xmlns="http://www.w3.org/2000/svg" xmlns:xlink="http://www.w3.org/1999/xlink">
    <title>Star_Outline</title>
    <g id="01-Write-a-review-(On-the-website)" stroke="none" stroke-width="1" fill="none" fill-rule="evenodd">
        <g id="02-Agent-profile" transform="translate(-612.000000, -2986.000000)" fill-rule="nonzero" stroke="#505050">
            <g id="Group-6" transform="translate(481.000000, 2936.000000)">
                <path d="M136.268126,58.2071896 L138.073018,59.3538849 C138.306098,59.5019668 138.615091,59.4330621 138.763173,59.199982 C138.834163,59.0882447 138.857943,58.9529153 138.8293,58.8236701 L138.332631,56.5826011 C138.293889,56.4077905 138.35158,56.2256078 138.483883,56.1049613 L140.159652,54.5768354 C140.363696,54.3907688 140.378269,54.074522 140.192203,53.8704782 C140.107862,53.7779889 139.991899,53.7204975 139.867225,53.7093634 L137.709977,53.5167097 C137.522812,53.4999949 137.360822,53.3797527 137.290638,53.205442 L136.463815,51.1519361 C136.360676,50.8957781 136.069408,50.771732 135.81325,50.8748713 C135.687047,50.9256857 135.586999,51.025733 135.536185,51.1519361 L134.709362,53.205442 C134.639178,53.3797527 134.477188,53.4999949 134.290023,53.5167097 L132.132775,53.7093634 C131.857728,53.7339267 131.65467,53.9768094 131.679233,54.2518571 C131.690367,54.3765312 131.747858,54.4924948 131.840348,54.5768354 L133.516117,56.1049613 C133.64842,56.2256078 133.706111,56.4077905 133.667369,56.5826011 L133.1707,58.8236701 C133.110951,59.093271 133.281069,59.3602621 133.55067,59.4200115 C133.679915,59.448655 133.815244,59.4248745 133.926982,59.3538849 L135.731874,58.2071896 C135.895509,58.1032282 136.104491,58.1032282 136.268126,58.2071896 Z" id="Star_Outline"></path>
            </g>
        </g>
    </g>
</svg>