<?xml version="1.0" encoding="UTF-8"?>
<svg width="22px" height="21px" viewBox="0 0 22 21" version="1.1" xmlns="http://www.w3.org/2000/svg" xmlns:xlink="http://www.w3.org/1999/xlink">
    <title>Star</title>
    <g id="01-Write-a-review-(On-the-website)" stroke="none" stroke-width="1" fill="none" fill-rule="evenodd" fill-opacity="0">
        <g id="03-Writing-the-review" transform="translate(-634.000000, -321.000000)" fill="#FFFFFF" stroke="#2C2C2C">
            <g id="Group-2" transform="translate(583.000000, 100.000000)">
                <g id="Group" transform="translate(30.000000, 156.000000)">
                    <path d="M32,81.28 L27.055606,84.3841361 C26.587861,84.6777907 25.9706246,84.5366626 25.67697,84.0689176 C25.5319539,83.83793 25.4875751,83.5577333 25.5541145,83.2932387 L26.9784216,77.6316097 L26.9784216,77.6316097 L22.498311,73.8884424 C22.0744877,73.5343347 22.017972,72.9036971 22.3720796,72.4798737 C22.5469494,72.2705762 22.7997185,72.1417839 23.0718297,72.1233333 L28.8964939,71.7283903 L28.8964939,71.7283903 L31.0720272,66.3108495 C31.277835,65.7983443 31.8601428,65.549717 32.372648,65.7555248 C32.6257396,65.8571593 32.8263383,66.057758 32.9279728,66.3108495 L35.1035061,71.7283903 L35.1035061,71.7283903 L40.9281703,72.1233333 C41.4791898,72.1606953 41.8955915,72.6376728 41.8582295,73.1886924 C41.8397789,73.4608036 41.7109866,73.7135726 41.501689,73.8884424 L37.0215784,77.6316097 L37.0215784,77.6316097 L38.4458855,83.2932387 C38.5806265,83.8288349 38.2556691,84.3722506 37.7200729,84.5069916 C37.4555782,84.573531 37.1753815,84.5291522 36.944394,84.3841361 L32,81.28 L32,81.28 Z" id="Star"></path>
                </g>
            </g>
        </g>
    </g>
</svg>