<?xml version="1.0" encoding="UTF-8"?>
<svg width="10px" height="10px" viewBox="0 0 10 10" version="1.1" xmlns="http://www.w3.org/2000/svg" xmlns:xlink="http://www.w3.org/1999/xlink">
    <title>Star_Filled</title>
    <g id="01-Write-a-review-(On-the-website)" stroke="none" stroke-width="1" fill="none" fill-rule="evenodd">
        <g id="02-Agent-profile" transform="translate(-597.000000, -2986.000000)" fill="#505050" fill-rule="nonzero">
            <g id="Group-6" transform="translate(481.000000, 2936.000000)">
                <path d="M121.268126,58.2071896 L123.073018,59.3538849 C123.306098,59.5019668 123.615091,59.4330621 123.763173,59.199982 C123.834163,59.0882447 123.857943,58.9529153 123.8293,58.8236701 L123.332631,56.5826011 C123.293889,56.4077905 123.35158,56.2256078 123.483883,56.1049613 L125.159652,54.5768354 C125.363696,54.3907688 125.378269,54.074522 125.192203,53.8704782 C125.107862,53.7779889 124.991899,53.7204975 124.867225,53.7093634 L122.709977,53.5167097 C122.522812,53.4999949 122.360822,53.3797527 122.290638,53.205442 L121.463815,51.1519361 C121.360676,50.8957781 121.069408,50.771732 120.81325,50.8748713 C120.687047,50.9256857 120.586999,51.025733 120.536185,51.1519361 L119.709362,53.205442 C119.639178,53.3797527 119.477188,53.4999949 119.290023,53.5167097 L117.132775,53.7093634 C116.857728,53.7339267 116.65467,53.9768094 116.679233,54.2518571 C116.690367,54.3765312 116.747858,54.4924948 116.840348,54.5768354 L118.516117,56.1049613 C118.64842,56.2256078 118.706111,56.4077905 118.667369,56.5826011 L118.1707,58.8236701 C118.110951,59.093271 118.281069,59.3602621 118.55067,59.4200115 C118.679915,59.448655 118.815244,59.4248745 118.926982,59.3538849 L120.731874,58.2071896 C120.895509,58.1032282 121.104491,58.1032282 121.268126,58.2071896 Z" id="Star_Filled"></path>
            </g>
        </g>
    </g>
</svg>