<?xml version="1.0" encoding="UTF-8"?>
<svg width="16px" height="16px" viewBox="0 0 16 16" version="1.1" xmlns="http://www.w3.org/2000/svg" xmlns:xlink="http://www.w3.org/1999/xlink">
    <title>Star</title>
    <g id="03-Admin" stroke="none" stroke-width="1" fill="none" fill-rule="evenodd">
        <g id="02-Reviews-for-approval" transform="translate(-503.000000, -592.000000)" fill="#E03C31">
            <g id="Group-7" transform="translate(481.000000, 532.000000)">
                <path d="M30,73.4 L26.2311765,75.7661021 C25.7634315,76.0597567 25.1461951,75.9186286 24.8525405,75.4508836 C24.7075244,75.219896 24.6631456,74.9396993 24.729685,74.6752047 L25.8153513,70.3596748 L25.8153513,70.3596748 L22.400424,67.5064764 C21.9766007,67.1523687 21.920085,66.521731 22.2741927,66.0979077 C22.4490625,65.8886101 22.7018315,65.7598179 22.9739427,65.7413673 L27.4137449,65.4403252 L27.4137449,65.4403252 L29.0720272,61.3108495 C29.277835,60.7983443 29.8601428,60.549717 30.372648,60.7555248 C30.6257396,60.8571593 30.8263383,61.057758 30.9279728,61.3108495 L32.5862551,65.4403252 L32.5862551,65.4403252 L37.0260573,65.7413673 C37.5770768,65.7787293 37.9934785,66.2557068 37.9561164,66.8067264 C37.9376659,67.0788375 37.8088736,67.3316066 37.599576,67.5064764 L34.1846487,70.3596748 L34.1846487,70.3596748 L35.270315,74.6752047 C35.405056,75.2108009 35.0800986,75.7542166 34.5445024,75.8889576 C34.2800077,75.955497 33.999811,75.9111182 33.7688235,75.7661021 L30,73.4 L30,73.4 Z" id="Star"></path>
            </g>
        </g>
    </g>
</svg>