<?xml version="1.0" encoding="UTF-8"?>
<svg width="20px" height="20px" viewBox="0 0 20 20" version="1.1" xmlns="http://www.w3.org/2000/svg" xmlns:xlink="http://www.w3.org/1999/xlink">
    <title>Star</title>
    <g id="01-Write-a-review-(On-the-website)" stroke="none" stroke-width="1" fill="none" fill-rule="evenodd">
        <g id="04-Review-entered" transform="translate(-636.000000, -321.000000)" fill="#E03C31">
            <g id="Group-2" transform="translate(583.000000, 100.000000)">
                <g id="Group" transform="translate(30.000000, 156.000000)">
                    <path d="M33,81.28 L28.055606,84.3841361 C27.587861,84.6777907 26.9706246,84.5366626 26.67697,84.0689176 C26.5319539,83.83793 26.4875751,83.5577333 26.5541145,83.2932387 L27.9784216,77.6316097 L27.9784216,77.6316097 L23.498311,73.8884424 C23.0744877,73.5343347 23.017972,72.9036971 23.3720796,72.4798737 C23.5469494,72.2705762 23.7997185,72.1417839 24.0718297,72.1233333 L29.8964939,71.7283903 L29.8964939,71.7283903 L32.0720272,66.3108495 C32.277835,65.7983443 32.8601428,65.549717 33.372648,65.7555248 C33.6257396,65.8571593 33.8263383,66.057758 33.9279728,66.3108495 L36.1035061,71.7283903 L36.1035061,71.7283903 L41.9281703,72.1233333 C42.4791898,72.1606953 42.8955915,72.6376728 42.8582295,73.1886924 C42.8397789,73.4608036 42.7109866,73.7135726 42.501689,73.8884424 L38.0215784,77.6316097 L38.0215784,77.6316097 L39.4458855,83.2932387 C39.5806265,83.8288349 39.2556691,84.3722506 38.7200729,84.5069916 C38.4555782,84.573531 38.1753815,84.5291522 37.944394,84.3841361 L33,81.28 L33,81.28 Z" id="Star"></path>
                </g>
            </g>
        </g>
    </g>
</svg>